<?xml version="1.0" encoding="UTF-8"?><svg id="Calque_2" xmlns="http://www.w3.org/2000/svg" viewBox="0 0 217.39 39.46"><defs><style>.cls-1{fill:#e2e2e1;}.cls-2{fill:#df4949;}</style></defs><g id="Calque_1-2"><g><path class="cls-1" d="M23.92,37.5c-.78,1.38-1.9,1.7-3.35,.94L1.68,27.85c-1.12-.65-1.68-1.61-1.68-2.88,0-1.05,.56-1.9,1.68-2.55L20.57,11.9c1.41-.74,2.52-.42,3.35,.94,.74,1.43,.4,2.55-1,3.35L5.09,26.04v-1.88l17.89,10.05c1.38,.83,1.7,1.92,.94,3.28Z"/><path class="cls-2" d="M37.42,27.35v1.33c0,2.38,.43,4,1.3,4.85,.87,.86,2.5,1.29,4.89,1.29h4.54c1.88,0,3.27-.17,4.18-.53,.9-.35,1.5-.97,1.8-1.85,.2-.7,.48-1.24,.84-1.6,.36-.37,.91-.55,1.65-.55,.77,0,1.36,.2,1.77,.61s.53,1,.39,1.77c-.41,2.29-1.49,3.99-3.26,5.12-1.77,1.13-4.22,1.69-7.36,1.69h-4.54c-3.67,0-6.39-.89-8.17-2.65-1.78-1.77-2.67-4.48-2.67-8.13v-6.42c0-3.74,.89-6.49,2.67-8.26,1.78-1.76,4.5-2.62,8.17-2.59h4.54c3.69,0,6.42,.88,8.19,2.64,1.77,1.76,2.65,4.49,2.65,8.2v2.77c0,1.55-.77,2.32-2.32,2.32h-19.25Zm6.19-11.28c-2.4-.04-4.03,.38-4.89,1.24-.87,.87-1.3,2.52-1.3,4.95v.44h16.92v-.44c0-2.42-.43-4.05-1.29-4.91-.86-.86-2.49-1.29-4.91-1.29h-4.54Z"/><path class="cls-1" d="M99.86,11.42c3.48,0,5.99,.82,7.51,2.46,1.52,1.64,2.28,4.36,2.28,8.16v15.1c0,1.55-.77,2.32-2.32,2.32s-2.32-.77-2.32-2.32v-15.1c0-2.1-.4-3.62-1.2-4.56-.8-.94-2.12-1.41-3.94-1.41h-2.27c-2.1,0-3.61,.47-4.51,1.41-.9,.94-1.36,2.46-1.36,4.56v15.1c0,1.55-.77,2.32-2.32,2.32s-2.32-.77-2.32-2.32v-15.1c0-2.1-.4-3.62-1.2-4.56-.8-.94-2.12-1.41-3.94-1.41h-2.27c-2.1,0-3.61,.47-4.51,1.41-.9,.94-1.36,2.46-1.36,4.56v15.1c0,1.55-.77,2.32-2.32,2.32s-2.32-.77-2.32-2.32V13.74c0-1.55,.77-2.32,2.32-2.32s2.32,.77,2.32,2.32v1.27c.98-1.27,2.05-2.19,3.22-2.75,1.17-.56,2.57-.84,4.19-.84h.72c2.29,0,4.08,.32,5.39,.95s2.3,1.66,2.99,3.08c.98-1.46,2.01-2.49,3.11-3.11,1.1-.62,2.48-.93,4.16-.93h2.27Z"/><path class="cls-1" d="M122.15,6.89c-1.75,0-2.63-.89-2.63-2.65v-1.63c0-1.73,.88-2.6,2.63-2.6h1.6c1.68,0,2.52,.87,2.52,2.6v1.63c0,1.77-.84,2.65-2.52,2.65h-1.6Zm.77,32.58c-1.55,0-2.32-.77-2.32-2.32V13.74c0-1.55,.77-2.32,2.32-2.32s2.32,.77,2.32,2.32v23.4c0,1.55-.77,2.32-2.32,2.32Z"/><path class="cls-1" d="M145.1,39.46c-2.82,0-4.92-.7-6.29-2.09-1.37-1.39-2.06-3.5-2.06-6.32V2.85c0-1.55,.77-2.32,2.32-2.32s2.32,.77,2.32,2.32V31.06c0,1.49,.24,2.49,.73,3s1.48,.76,2.97,.76c1.59,0,2.38,.77,2.38,2.32,.06,1.55-.74,2.32-2.38,2.32Z"/><path class="cls-1" d="M157.94,27.35v1.33c0,2.38,.43,4,1.3,4.85,.87,.86,2.5,1.29,4.89,1.29h4.54c1.88,0,3.27-.17,4.18-.53,.9-.35,1.5-.97,1.8-1.85,.2-.7,.48-1.24,.84-1.6,.36-.37,.91-.55,1.65-.55,.77,0,1.36,.2,1.77,.61s.53,1,.39,1.77c-.41,2.29-1.49,3.99-3.26,5.12-1.77,1.13-4.22,1.69-7.36,1.69h-4.54c-3.67,0-6.39-.89-8.17-2.65-1.78-1.77-2.67-4.48-2.67-8.13v-6.42c0-3.74,.89-6.49,2.67-8.26,1.78-1.76,4.5-2.62,8.17-2.59h4.54c3.69,0,6.42,.88,8.19,2.64,1.77,1.76,2.65,4.49,2.65,8.2v2.77c0,1.55-.77,2.32-2.32,2.32h-19.25Zm6.19-11.28c-2.4-.04-4.03,.38-4.89,1.24-.87,.87-1.3,2.52-1.3,4.95v.44h16.92v-.44c0-2.42-.43-4.05-1.29-4.91-.86-.86-2.49-1.29-4.91-1.29h-4.54Z"/><path class="cls-1" d="M193.47,37.5c-.76-1.36-.45-2.46,.94-3.28l17.89-10.05v1.88l-17.82-9.85c-1.41-.8-1.74-1.92-1-3.35,.83-1.36,1.94-1.67,3.35-.94l18.89,10.52c1.12,.65,1.67,1.5,1.67,2.55,0,1.27-.56,2.23-1.67,2.88l-18.89,10.59c-1.45,.76-2.57,.45-3.35-.94Z"/></g></g></svg>